<mxfile host="Electron" agent="Mozilla/5.0 (Windows NT 10.0; Win64; x64) AppleWebKit/537.36 (KHTML, like Gecko) draw.io/26.0.7 Chrome/128.0.6613.186 Electron/32.2.5 Safari/537.36" version="26.0.7">
  <diagram name="Page-1" id="0lanwQIMbhzFxu3wQ_ti">
    <mxGraphModel dx="1615" dy="955" grid="1" gridSize="10" guides="1" tooltips="1" connect="1" arrows="1" fold="1" page="1" pageScale="1" pageWidth="850" pageHeight="1100" math="0" shadow="0">
      <root>
        <mxCell id="0" />
        <mxCell id="1" parent="0" />
        <mxCell id="yOAzOKbq7As--M0zjiVG-7" value="" style="shape=folder;fontStyle=1;spacingTop=10;tabWidth=40;tabHeight=14;tabPosition=left;html=1;whiteSpace=wrap;fillColor=#ffe6cc;strokeColor=#d79b00;fontSize=20;" parent="1" vertex="1">
          <mxGeometry x="130" y="202" width="460.86" height="628" as="geometry" />
        </mxCell>
        <mxCell id="yOAzOKbq7As--M0zjiVG-1" value="Quản trị viên" style="shape=umlActor;verticalLabelPosition=bottom;verticalAlign=top;html=1;outlineConnect=0;fillColor=#f8cecc;strokeColor=#b85450;fontSize=20;" parent="1" vertex="1">
          <mxGeometry x="50" y="360" width="30" height="60" as="geometry" />
        </mxCell>
        <mxCell id="yOAzOKbq7As--M0zjiVG-43" style="edgeStyle=none;shape=connector;rounded=0;orthogonalLoop=1;jettySize=auto;html=1;entryX=0;entryY=0.5;entryDx=0;entryDy=0;labelBackgroundColor=default;strokeColor=#6c8ebf;align=center;verticalAlign=middle;fontFamily=Helvetica;fontSize=20;fontColor=default;endArrow=none;fillColor=#dae8fc;startFill=0;" parent="1" source="yOAzOKbq7As--M0zjiVG-2" target="yOAzOKbq7As--M0zjiVG-23" edge="1">
          <mxGeometry relative="1" as="geometry" />
        </mxCell>
        <mxCell id="yOAzOKbq7As--M0zjiVG-44" style="edgeStyle=none;shape=connector;rounded=0;orthogonalLoop=1;jettySize=auto;html=1;entryX=0;entryY=0.5;entryDx=0;entryDy=0;labelBackgroundColor=default;strokeColor=#6c8ebf;align=center;verticalAlign=middle;fontFamily=Helvetica;fontSize=20;fontColor=default;endArrow=none;fillColor=#dae8fc;startFill=0;" parent="1" source="yOAzOKbq7As--M0zjiVG-2" target="yOAzOKbq7As--M0zjiVG-24" edge="1">
          <mxGeometry relative="1" as="geometry" />
        </mxCell>
        <mxCell id="yOAzOKbq7As--M0zjiVG-2" value="Giáo viên" style="shape=umlActor;verticalLabelPosition=bottom;verticalAlign=top;html=1;outlineConnect=0;fillColor=#dae8fc;strokeColor=#6c8ebf;fontSize=20;" parent="1" vertex="1">
          <mxGeometry x="50" y="580" width="30" height="60" as="geometry" />
        </mxCell>
        <mxCell id="yOAzOKbq7As--M0zjiVG-3" value="Thí sinh" style="shape=umlActor;verticalLabelPosition=bottom;verticalAlign=top;html=1;outlineConnect=0;fillColor=#d5e8d4;strokeColor=#82b366;fontSize=20;" parent="1" vertex="1">
          <mxGeometry x="960.86" y="551" width="30" height="60" as="geometry" />
        </mxCell>
        <mxCell id="yOAzOKbq7As--M0zjiVG-5" value="&lt;b&gt;&lt;font&gt;Hệ thống thi trắc nghiệm&lt;/font&gt;&lt;/b&gt;" style="text;html=1;strokeColor=none;fillColor=none;align=center;verticalAlign=middle;whiteSpace=wrap;rounded=0;fontSize=25;" parent="1" vertex="1">
          <mxGeometry x="158.6" y="160" width="760" height="30" as="geometry" />
        </mxCell>
        <mxCell id="yOAzOKbq7As--M0zjiVG-9" value="" style="shape=folder;fontStyle=1;spacingTop=10;tabWidth=40;tabHeight=14;tabPosition=left;html=1;whiteSpace=wrap;fillColor=#ffe6cc;strokeColor=#d79b00;fontSize=20;" parent="1" vertex="1">
          <mxGeometry x="620" y="202" width="298.6" height="628" as="geometry" />
        </mxCell>
        <mxCell id="yOAzOKbq7As--M0zjiVG-11" value="&lt;b&gt;&lt;font&gt;Web quản lý&lt;/font&gt;&lt;/b&gt;" style="text;html=1;strokeColor=none;fillColor=none;align=center;verticalAlign=middle;whiteSpace=wrap;rounded=0;fontSize=20;" parent="1" vertex="1">
          <mxGeometry x="194.43" y="229" width="370" height="30" as="geometry" />
        </mxCell>
        <mxCell id="yOAzOKbq7As--M0zjiVG-12" value="&lt;span&gt;&lt;b&gt;Ứng dụng thi&lt;/b&gt;&lt;/span&gt;" style="text;html=1;strokeColor=none;fillColor=none;align=center;verticalAlign=middle;whiteSpace=wrap;rounded=0;fontSize=20;" parent="1" vertex="1">
          <mxGeometry x="590.86" y="229" width="370" height="30" as="geometry" />
        </mxCell>
        <mxCell id="yOAzOKbq7As--M0zjiVG-60" style="edgeStyle=none;shape=connector;rounded=0;orthogonalLoop=1;jettySize=auto;html=1;entryX=0.5;entryY=1;entryDx=0;entryDy=0;dashed=1;labelBackgroundColor=default;strokeColor=default;align=center;verticalAlign=middle;fontFamily=Helvetica;fontSize=20;fontColor=default;endArrow=classic;" parent="1" source="yOAzOKbq7As--M0zjiVG-13" target="yOAzOKbq7As--M0zjiVG-14" edge="1">
          <mxGeometry relative="1" as="geometry" />
        </mxCell>
        <mxCell id="yOAzOKbq7As--M0zjiVG-13" value="Làm bài" style="ellipse;whiteSpace=wrap;html=1;fontSize=20;" parent="1" vertex="1">
          <mxGeometry x="706.4" y="551" width="133.6" height="60" as="geometry" />
        </mxCell>
        <mxCell id="yOAzOKbq7As--M0zjiVG-14" value="Xác thực&lt;div&gt;thí sinh&lt;/div&gt;" style="ellipse;whiteSpace=wrap;html=1;fontSize=20;" parent="1" vertex="1">
          <mxGeometry x="711.39" y="360" width="128.61" height="60" as="geometry" />
        </mxCell>
        <mxCell id="yOAzOKbq7As--M0zjiVG-16" style="rounded=0;orthogonalLoop=1;jettySize=auto;html=1;entryX=1;entryY=0.5;entryDx=0;entryDy=0;fillColor=#d5e8d4;strokeColor=#82b366;fontSize=20;endArrow=none;startFill=0;" parent="1" source="yOAzOKbq7As--M0zjiVG-3" target="yOAzOKbq7As--M0zjiVG-13" edge="1">
          <mxGeometry relative="1" as="geometry" />
        </mxCell>
        <mxCell id="yOAzOKbq7As--M0zjiVG-17" value="Đăng&amp;nbsp;&lt;span style=&quot;background-color: transparent; color: light-dark(rgb(0, 0, 0), rgb(255, 255, 255));&quot;&gt;nhập&lt;/span&gt;" style="ellipse;whiteSpace=wrap;html=1;fontSize=20;" parent="1" vertex="1">
          <mxGeometry x="440" y="476" width="150" height="64" as="geometry" />
        </mxCell>
        <mxCell id="yOAzOKbq7As--M0zjiVG-47" style="edgeStyle=none;shape=connector;rounded=0;orthogonalLoop=1;jettySize=auto;html=1;exitX=1;exitY=0.5;exitDx=0;exitDy=0;entryX=0.5;entryY=0;entryDx=0;entryDy=0;labelBackgroundColor=default;align=center;verticalAlign=middle;fontFamily=Helvetica;fontSize=20;fontColor=default;endArrow=classic;dashed=1;" parent="1" source="yOAzOKbq7As--M0zjiVG-18" target="yOAzOKbq7As--M0zjiVG-17" edge="1">
          <mxGeometry relative="1" as="geometry" />
        </mxCell>
        <mxCell id="yOAzOKbq7As--M0zjiVG-18" value="Quản lý khoa" style="ellipse;whiteSpace=wrap;html=1;fontSize=20;" parent="1" vertex="1">
          <mxGeometry x="162.62" y="320" width="127.38" height="50" as="geometry" />
        </mxCell>
        <mxCell id="yOAzOKbq7As--M0zjiVG-48" style="edgeStyle=none;shape=connector;rounded=0;orthogonalLoop=1;jettySize=auto;html=1;exitX=1;exitY=0.5;exitDx=0;exitDy=0;entryX=0;entryY=0;entryDx=0;entryDy=0;labelBackgroundColor=default;align=center;verticalAlign=middle;fontFamily=Helvetica;fontSize=20;fontColor=default;endArrow=classic;dashed=1;" parent="1" source="yOAzOKbq7As--M0zjiVG-20" target="yOAzOKbq7As--M0zjiVG-17" edge="1">
          <mxGeometry relative="1" as="geometry" />
        </mxCell>
        <mxCell id="yOAzOKbq7As--M0zjiVG-20" value="Quản lý ngành" style="ellipse;whiteSpace=wrap;html=1;fontSize=20;" parent="1" vertex="1">
          <mxGeometry x="162.62" y="386" width="127.38" height="54" as="geometry" />
        </mxCell>
        <mxCell id="yOAzOKbq7As--M0zjiVG-49" style="edgeStyle=none;shape=connector;rounded=0;orthogonalLoop=1;jettySize=auto;html=1;exitX=1;exitY=0.5;exitDx=0;exitDy=0;entryX=0;entryY=0.5;entryDx=0;entryDy=0;labelBackgroundColor=default;align=center;verticalAlign=middle;fontFamily=Helvetica;fontSize=20;fontColor=default;endArrow=classic;dashed=1;" parent="1" source="yOAzOKbq7As--M0zjiVG-21" target="yOAzOKbq7As--M0zjiVG-17" edge="1">
          <mxGeometry relative="1" as="geometry" />
        </mxCell>
        <mxCell id="yOAzOKbq7As--M0zjiVG-21" value="Quản lý&lt;div&gt;môn học&lt;/div&gt;" style="ellipse;whiteSpace=wrap;html=1;fontSize=20;" parent="1" vertex="1">
          <mxGeometry x="165.19" y="451" width="124.81" height="57" as="geometry" />
        </mxCell>
        <mxCell id="yOAzOKbq7As--M0zjiVG-46" style="edgeStyle=none;shape=connector;rounded=0;orthogonalLoop=1;jettySize=auto;html=1;exitX=1;exitY=0.5;exitDx=0;exitDy=0;entryX=1;entryY=0;entryDx=0;entryDy=0;labelBackgroundColor=default;align=center;verticalAlign=middle;fontFamily=Helvetica;fontSize=20;fontColor=default;endArrow=classic;dashed=1;" parent="1" source="yOAzOKbq7As--M0zjiVG-22" target="yOAzOKbq7As--M0zjiVG-17" edge="1">
          <mxGeometry relative="1" as="geometry" />
        </mxCell>
        <mxCell id="yOAzOKbq7As--M0zjiVG-22" value="Quản lý&lt;div&gt;tài khoản&lt;/div&gt;" style="ellipse;whiteSpace=wrap;html=1;fontSize=20;" parent="1" vertex="1">
          <mxGeometry x="165.19" y="245" width="134.81" height="55" as="geometry" />
        </mxCell>
        <mxCell id="yOAzOKbq7As--M0zjiVG-50" style="edgeStyle=none;shape=connector;rounded=0;orthogonalLoop=1;jettySize=auto;html=1;exitX=1;exitY=0.5;exitDx=0;exitDy=0;entryX=0;entryY=1;entryDx=0;entryDy=0;dashed=1;labelBackgroundColor=default;strokeColor=default;align=center;verticalAlign=middle;fontFamily=Helvetica;fontSize=20;fontColor=default;endArrow=classic;" parent="1" source="yOAzOKbq7As--M0zjiVG-23" target="yOAzOKbq7As--M0zjiVG-17" edge="1">
          <mxGeometry relative="1" as="geometry" />
        </mxCell>
        <mxCell id="yOAzOKbq7As--M0zjiVG-23" value="Quản lý ngân&lt;br&gt;hàng câu hỏi" style="ellipse;whiteSpace=wrap;html=1;fontSize=20;" parent="1" vertex="1">
          <mxGeometry x="155.19" y="514" width="144.81" height="66" as="geometry" />
        </mxCell>
        <mxCell id="yOAzOKbq7As--M0zjiVG-51" style="edgeStyle=none;shape=connector;rounded=0;orthogonalLoop=1;jettySize=auto;html=1;exitX=1;exitY=0.5;exitDx=0;exitDy=0;entryX=0.5;entryY=1;entryDx=0;entryDy=0;dashed=1;labelBackgroundColor=default;strokeColor=default;align=center;verticalAlign=middle;fontFamily=Helvetica;fontSize=20;fontColor=default;endArrow=classic;" parent="1" source="yOAzOKbq7As--M0zjiVG-24" target="yOAzOKbq7As--M0zjiVG-17" edge="1">
          <mxGeometry relative="1" as="geometry" />
        </mxCell>
        <mxCell id="yOAzOKbq7As--M0zjiVG-24" value="Quản lý&lt;div&gt;kỳ thi&lt;/div&gt;" style="ellipse;whiteSpace=wrap;html=1;fontSize=20;" parent="1" vertex="1">
          <mxGeometry x="162.62" y="586" width="117.38" height="60" as="geometry" />
        </mxCell>
        <mxCell id="yOAzOKbq7As--M0zjiVG-26" style="edgeStyle=none;shape=connector;rounded=0;orthogonalLoop=1;jettySize=auto;html=1;entryX=0;entryY=0.5;entryDx=0;entryDy=0;labelBackgroundColor=default;strokeColor=#b85450;align=center;verticalAlign=middle;fontFamily=Helvetica;fontSize=20;fontColor=default;endArrow=none;fillColor=#f8cecc;startFill=0;" parent="1" source="yOAzOKbq7As--M0zjiVG-1" target="yOAzOKbq7As--M0zjiVG-22" edge="1">
          <mxGeometry relative="1" as="geometry" />
        </mxCell>
        <mxCell id="yOAzOKbq7As--M0zjiVG-27" style="edgeStyle=none;shape=connector;rounded=0;orthogonalLoop=1;jettySize=auto;html=1;entryX=0;entryY=0.5;entryDx=0;entryDy=0;labelBackgroundColor=default;strokeColor=#b85450;align=center;verticalAlign=middle;fontFamily=Helvetica;fontSize=20;fontColor=default;endArrow=none;fillColor=#f8cecc;startFill=0;" parent="1" source="yOAzOKbq7As--M0zjiVG-1" target="yOAzOKbq7As--M0zjiVG-18" edge="1">
          <mxGeometry relative="1" as="geometry" />
        </mxCell>
        <mxCell id="yOAzOKbq7As--M0zjiVG-28" style="edgeStyle=none;shape=connector;rounded=0;orthogonalLoop=1;jettySize=auto;html=1;entryX=0;entryY=0.5;entryDx=0;entryDy=0;labelBackgroundColor=default;strokeColor=#b85450;align=center;verticalAlign=middle;fontFamily=Helvetica;fontSize=20;fontColor=default;endArrow=none;fillColor=#f8cecc;startFill=0;" parent="1" source="yOAzOKbq7As--M0zjiVG-1" target="yOAzOKbq7As--M0zjiVG-20" edge="1">
          <mxGeometry relative="1" as="geometry" />
        </mxCell>
        <mxCell id="yOAzOKbq7As--M0zjiVG-29" style="edgeStyle=none;shape=connector;rounded=0;orthogonalLoop=1;jettySize=auto;html=1;entryX=0;entryY=0.5;entryDx=0;entryDy=0;labelBackgroundColor=default;strokeColor=#b85450;align=center;verticalAlign=middle;fontFamily=Helvetica;fontSize=20;fontColor=default;endArrow=none;fillColor=#f8cecc;startFill=0;" parent="1" source="yOAzOKbq7As--M0zjiVG-1" target="yOAzOKbq7As--M0zjiVG-21" edge="1">
          <mxGeometry relative="1" as="geometry" />
        </mxCell>
        <mxCell id="yOAzOKbq7As--M0zjiVG-36" style="edgeStyle=none;shape=connector;rounded=0;orthogonalLoop=1;jettySize=auto;html=1;entryX=0.029;entryY=0.333;entryDx=0;entryDy=0;labelBackgroundColor=default;strokeColor=#b85450;align=center;verticalAlign=middle;fontFamily=Helvetica;fontSize=20;fontColor=default;endArrow=none;fillColor=#f8cecc;entryPerimeter=0;startFill=0;" parent="1" source="yOAzOKbq7As--M0zjiVG-1" target="yOAzOKbq7As--M0zjiVG-23" edge="1">
          <mxGeometry relative="1" as="geometry" />
        </mxCell>
        <mxCell id="yOAzOKbq7As--M0zjiVG-37" style="edgeStyle=none;shape=connector;rounded=0;orthogonalLoop=1;jettySize=auto;html=1;entryX=0.029;entryY=0.333;entryDx=0;entryDy=0;labelBackgroundColor=default;strokeColor=#b85450;align=center;verticalAlign=middle;fontFamily=Helvetica;fontSize=20;fontColor=default;endArrow=none;fillColor=#f8cecc;entryPerimeter=0;startFill=0;" parent="1" source="yOAzOKbq7As--M0zjiVG-1" target="yOAzOKbq7As--M0zjiVG-24" edge="1">
          <mxGeometry relative="1" as="geometry" />
        </mxCell>
        <mxCell id="yOAzOKbq7As--M0zjiVG-55" value="&amp;lt;&amp;lt;include&amp;gt;&amp;gt;" style="text;html=1;align=center;verticalAlign=middle;resizable=0;points=[];autosize=1;strokeColor=none;fillColor=none;fontSize=18;fontFamily=Helvetica;fontColor=default;rotation=10;" parent="1" vertex="1">
          <mxGeometry x="308" y="463" width="120" height="40" as="geometry" />
        </mxCell>
        <mxCell id="yOAzOKbq7As--M0zjiVG-56" value="&amp;lt;&amp;lt;include&amp;gt;&amp;gt;" style="text;html=1;align=center;verticalAlign=middle;resizable=0;points=[];autosize=1;strokeColor=none;fillColor=none;fontSize=18;fontFamily=Helvetica;fontColor=default;rotation=25;" parent="1" vertex="1">
          <mxGeometry x="319.43" y="420" width="120" height="40" as="geometry" />
        </mxCell>
        <mxCell id="yOAzOKbq7As--M0zjiVG-57" value="&amp;lt;&amp;lt;include&amp;gt;&amp;gt;" style="text;html=1;align=center;verticalAlign=middle;resizable=0;points=[];autosize=1;strokeColor=none;fillColor=none;fontSize=18;fontFamily=Helvetica;fontColor=default;rotation=30;" parent="1" vertex="1">
          <mxGeometry x="321" y="368" width="120" height="40" as="geometry" />
        </mxCell>
        <mxCell id="yOAzOKbq7As--M0zjiVG-59" value="&amp;lt;&amp;lt;include&amp;gt;&amp;gt;" style="text;html=1;align=center;verticalAlign=middle;resizable=0;points=[];autosize=1;strokeColor=none;fillColor=none;fontSize=18;fontFamily=Helvetica;fontColor=default;rotation=40;" parent="1" vertex="1">
          <mxGeometry x="338" y="318" width="120" height="40" as="geometry" />
        </mxCell>
        <mxCell id="yOAzOKbq7As--M0zjiVG-61" value="&amp;lt;&amp;lt;include&amp;gt;&amp;gt;" style="text;html=1;align=center;verticalAlign=middle;resizable=0;points=[];autosize=1;strokeColor=none;fillColor=none;fontSize=18;fontFamily=Helvetica;fontColor=default;rotation=90;" parent="1" vertex="1">
          <mxGeometry x="728" y="469" width="120" height="40" as="geometry" />
        </mxCell>
        <mxCell id="7qQKtuQuAqREFhXmggC2-1" value="&amp;lt;&amp;lt;include&amp;gt;&amp;gt;" style="text;html=1;align=center;verticalAlign=middle;resizable=0;points=[];autosize=1;strokeColor=none;fillColor=none;fontSize=18;fontFamily=Helvetica;fontColor=default;rotation=-5;" parent="1" vertex="1">
          <mxGeometry x="311" y="507" width="120" height="40" as="geometry" />
        </mxCell>
        <mxCell id="7qQKtuQuAqREFhXmggC2-2" value="&amp;lt;&amp;lt;include&amp;gt;&amp;gt;" style="text;html=1;align=center;verticalAlign=middle;resizable=0;points=[];autosize=1;strokeColor=none;fillColor=none;fontSize=18;fontFamily=Helvetica;fontColor=default;rotation=-20;" parent="1" vertex="1">
          <mxGeometry x="316" y="551" width="120" height="40" as="geometry" />
        </mxCell>
        <mxCell id="Mz9632f78trMKjZMojD--5" style="rounded=0;orthogonalLoop=1;jettySize=auto;html=1;entryX=0.974;entryY=0.644;entryDx=0;entryDy=0;endArrow=open;endFill=0;dashed=1;fontSize=20;entryPerimeter=0;" parent="1" source="Mz9632f78trMKjZMojD--1" target="yOAzOKbq7As--M0zjiVG-24" edge="1">
          <mxGeometry relative="1" as="geometry" />
        </mxCell>
        <mxCell id="Mz9632f78trMKjZMojD--1" value="Quản lý&lt;div&gt;đề thi&lt;/div&gt;" style="ellipse;whiteSpace=wrap;html=1;fontSize=20;" parent="1" vertex="1">
          <mxGeometry x="436" y="621" width="124" height="59" as="geometry" />
        </mxCell>
        <mxCell id="Mz9632f78trMKjZMojD--6" style="edgeStyle=none;shape=connector;rounded=0;orthogonalLoop=1;jettySize=auto;html=1;exitX=0;exitY=0;exitDx=0;exitDy=0;entryX=1;entryY=1;entryDx=0;entryDy=0;dashed=1;labelBackgroundColor=default;strokeColor=default;align=center;verticalAlign=middle;fontFamily=Helvetica;fontSize=20;fontColor=default;endArrow=open;endFill=0;" parent="1" source="Mz9632f78trMKjZMojD--2" target="yOAzOKbq7As--M0zjiVG-24" edge="1">
          <mxGeometry relative="1" as="geometry" />
        </mxCell>
        <mxCell id="Mz9632f78trMKjZMojD--2" value="Quản lý danh&lt;br&gt;sách thí sinh" style="ellipse;whiteSpace=wrap;html=1;fontSize=20;" parent="1" vertex="1">
          <mxGeometry x="400" y="694" width="150" height="66" as="geometry" />
        </mxCell>
        <mxCell id="Mz9632f78trMKjZMojD--3" value="Quản lý kết quả thi" style="ellipse;whiteSpace=wrap;html=1;fontSize=20;" parent="1" vertex="1">
          <mxGeometry x="267.53" y="740" width="142.47" height="70" as="geometry" />
        </mxCell>
        <mxCell id="Mz9632f78trMKjZMojD--8" style="edgeStyle=none;shape=connector;rounded=0;orthogonalLoop=1;jettySize=auto;html=1;entryX=0.5;entryY=1;entryDx=0;entryDy=0;dashed=1;labelBackgroundColor=default;strokeColor=default;align=center;verticalAlign=middle;fontFamily=Helvetica;fontSize=20;fontColor=default;endArrow=open;endFill=0;" parent="1" source="Mz9632f78trMKjZMojD--4" target="yOAzOKbq7As--M0zjiVG-24" edge="1">
          <mxGeometry relative="1" as="geometry" />
        </mxCell>
        <mxCell id="Mz9632f78trMKjZMojD--4" value="Báo cáo thống kê" style="ellipse;whiteSpace=wrap;html=1;fontSize=20;" parent="1" vertex="1">
          <mxGeometry x="132" y="750" width="120" height="60" as="geometry" />
        </mxCell>
        <mxCell id="Mz9632f78trMKjZMojD--7" style="edgeStyle=none;shape=connector;rounded=0;orthogonalLoop=1;jettySize=auto;html=1;entryX=0.694;entryY=0.927;entryDx=0;entryDy=0;entryPerimeter=0;dashed=1;labelBackgroundColor=default;strokeColor=default;align=center;verticalAlign=middle;fontFamily=Helvetica;fontSize=20;fontColor=default;endArrow=open;endFill=0;" parent="1" source="Mz9632f78trMKjZMojD--3" target="yOAzOKbq7As--M0zjiVG-24" edge="1">
          <mxGeometry relative="1" as="geometry" />
        </mxCell>
        <mxCell id="Mz9632f78trMKjZMojD--9" value="&amp;lt;&amp;lt;extend&amp;gt;&amp;gt;" style="text;html=1;align=center;verticalAlign=middle;resizable=0;points=[];autosize=1;strokeColor=none;fillColor=none;fontSize=18;fontFamily=Helvetica;fontColor=default;rotation=25;" parent="1" vertex="1">
          <mxGeometry x="291.99999999999994" y="639" width="120" height="40" as="geometry" />
        </mxCell>
        <mxCell id="Mz9632f78trMKjZMojD--10" value="&amp;lt;&amp;lt;extend&amp;gt;&amp;gt;" style="text;html=1;align=center;verticalAlign=middle;resizable=0;points=[];autosize=1;strokeColor=none;fillColor=none;fontSize=18;fontFamily=Helvetica;fontColor=default;rotation=5;" parent="1" vertex="1">
          <mxGeometry x="308.99999999999994" y="601" width="120" height="40" as="geometry" />
        </mxCell>
        <mxCell id="Mz9632f78trMKjZMojD--11" value="&amp;lt;&amp;lt;extend&amp;gt;&amp;gt;" style="text;html=1;align=center;verticalAlign=middle;resizable=0;points=[];autosize=1;strokeColor=none;fillColor=none;fontSize=18;fontFamily=Helvetica;fontColor=default;rotation=55;" parent="1" vertex="1">
          <mxGeometry x="233" y="668" width="120" height="40" as="geometry" />
        </mxCell>
        <mxCell id="Mz9632f78trMKjZMojD--12" value="&amp;lt;&amp;lt;extend&amp;gt;&amp;gt;" style="text;html=1;align=center;verticalAlign=middle;resizable=0;points=[];autosize=1;strokeColor=none;fillColor=none;fontSize=18;fontFamily=Helvetica;fontColor=default;rotation=-80;" parent="1" vertex="1">
          <mxGeometry x="138" y="677" width="120" height="40" as="geometry" />
        </mxCell>
      </root>
    </mxGraphModel>
  </diagram>
</mxfile>
